<svg xmlns="http://www.w3.org/2000/svg" width="149.236" height="35.651" viewBox="0 0 149.236 35.651">
  <g id="Group_1988" data-name="Group 1988" transform="translate(-1438.764 -3583.33)">
    <path id="Path_3526" data-name="Path 3526" d="M15.226,27.205a9.317,9.317,0,0,0-13.117,1.48A9.165,9.165,0,0,0,.091,35.143a9.009,9.009,0,0,0,3.5,6.659,9.317,9.317,0,0,0,13.117-1.48,9.334,9.334,0,0,0-1.48-13.117" transform="translate(1438.74 3575.094)" fill="#34c3e0"/>
    <path id="Path_3527" data-name="Path 3527" d="M10.3,0a7.6,7.6,0,1,0,7.6,7.6A7.593,7.593,0,0,0,10.3,0" transform="translate(1437.88 3583.33)" fill="#96cb64"/>
    <path id="Path_3528" data-name="Path 3528" d="M42.483,0A9.3,9.3,0,0,0,33.2,9.283V26.368a9.283,9.283,0,0,0,18.565,0V9.283A9.389,9.389,0,0,0,42.483,0" transform="translate(1427.896 3583.33)" fill="#45b97c"/>
    <path id="Path_3529" data-name="Path 3529" d="M76.483,0A9.3,9.3,0,0,0,67.2,9.283V26.368a9.283,9.283,0,1,0,18.565,0V9.283A9.3,9.3,0,0,0,76.483,0" transform="translate(1416.766 3583.33)" fill="#4ba6dd"/>
    <path id="Path_3530" data-name="Path 3530" d="M107.715,10.218A2.979,2.979,0,0,1,106.3,7.8c0-1.682,1.278-3.3,3.9-3.3,2.287,0,4.036,1.278,4.036,3.3a4.667,4.667,0,0,1-1.345,3.027,2.972,2.972,0,0,1,1.682,2.623c0,1.816-1.614,3.632-4.305,3.632-2.623,0-4.372-1.682-4.372-3.632a3.955,3.955,0,0,1,1.816-3.229M110.2,15.2a1.849,1.849,0,0,0,2.018-1.749c0-1.144-1.278-1.547-3.027-2.287a2.683,2.683,0,0,0-1.144,2.085A2.044,2.044,0,0,0,110.2,15.2m1.883-7.13c0-1.076-.74-1.614-1.816-1.614-1.144,0-1.749.605-1.749,1.413,0,1.211,1.345,1.614,2.758,2.22a3.56,3.56,0,0,0,.807-2.018" transform="translate(1404.1 3581.857)" fill="#3c3c3b"/>
    <path id="Path_3531" data-name="Path 3531" d="M120.8,10.723c0-3.5,1.076-6.323,4.44-6.323s4.44,2.758,4.44,6.323c0,3.5-1.076,6.323-4.44,6.323s-4.44-2.825-4.44-6.323m6.592,0c0-2.354-.471-4.238-2.152-4.238s-2.153,1.883-2.153,4.238c0,2.422.471,4.305,2.153,4.305,1.614,0,2.152-1.883,2.152-4.305" transform="translate(1399.221 3581.89)" fill="#3c3c3b"/>
    <path id="Path_3532" data-name="Path 3532" d="M136.3,10.723c0-3.5,1.076-6.323,4.44-6.323s4.44,2.758,4.44,6.323c0,3.5-1.076,6.323-4.44,6.323s-4.44-2.825-4.44-6.323m6.525,0c0-2.354-.471-4.238-2.153-4.238s-2.152,1.883-2.152,4.238c0,2.422.471,4.305,2.152,4.305s2.153-1.883,2.153-4.305" transform="translate(1394.147 3581.89)" fill="#3c3c3b"/>
    <path id="Path_3533" data-name="Path 3533" d="M151.9,15.444v-.471c0-.471.269-.673.74-.673h3.7a.656.656,0,0,1,.74.673v.471a.673.673,0,0,1-.74.74h-3.7c-.471-.067-.74-.269-.74-.74" transform="translate(1389.041 3578.649)" fill="#3c3c3b"/>
    <path id="Path_3534" data-name="Path 3534" d="M105.8,30.04a.656.656,0,0,1,.673-.74h3.969a3.761,3.761,0,0,1,3.9,3.969,3.816,3.816,0,0,1-3.9,4.036h-2.489v3.5a.656.656,0,0,1-.673.74h-.807c-.471,0-.673-.269-.673-.74Zm4.305,5.314a1.892,1.892,0,0,0,2.018-2.085,1.892,1.892,0,0,0-2.018-2.085H108.02v4.17Z" transform="translate(1404.131 3573.739)" fill="#3c3c3b"/>
    <path id="Path_3535" data-name="Path 3535" d="M120.967,30.04a.673.673,0,0,1,.74-.74h.74a.673.673,0,0,1,.74.74v3.565a4.215,4.215,0,0,1-.067.74h.067a3.357,3.357,0,0,1,3.027-1.749c1.951,0,3.027,1.009,3.027,3.363v4.91a.673.673,0,0,1-.74.74h-.74a.673.673,0,0,1-.74-.74V36.43c0-1.076-.269-1.816-1.345-1.816a2.608,2.608,0,0,0-2.556,2.892V40.87a.673.673,0,0,1-.74.74h-.74a.673.673,0,0,1-.74-.74V30.04Z" transform="translate(1399.189 3573.739)" fill="#3c3c3b"/>
    <path id="Path_3536" data-name="Path 3536" d="M140.912,37.665h.336v-.2a1.431,1.431,0,0,0-1.614-1.547,4.2,4.2,0,0,0-1.816.471.621.621,0,0,1-.942-.269l-.2-.336a.621.621,0,0,1,.269-.942,6.333,6.333,0,0,1,2.892-.74c2.287,0,3.632,1.278,3.632,3.5v4.776a.673.673,0,0,1-.74.74h-.605c-.471,0-.673-.269-.673-.74v-.336a.976.976,0,0,1,.067-.4h-.067a3.165,3.165,0,0,1-2.758,1.682,2.656,2.656,0,0,1-2.892-2.623c0-2.556,3.162-3.027,5.112-3.027M139.3,41.634a2.218,2.218,0,0,0,2.018-2.287V39.01h-.336c-1.076,0-2.96.2-2.96,1.48-.067.538.4,1.144,1.278,1.144" transform="translate(1394.311 3572.168)" fill="#3c3c3b"/>
    <path id="Path_3537" data-name="Path 3537" d="M150.2,35.107a.656.656,0,0,1,.673-.74h.673a.673.673,0,0,1,.74.74v.807a2.777,2.777,0,0,1-.067.605h.067a2.94,2.94,0,0,1,2.556-2.22c.471,0,.673.269.673.74v.673a.673.673,0,0,1-.74.74c-1.614,0-2.354,1.547-2.354,3.162v2.825a.656.656,0,0,1-.673.74h-.74c-.471,0-.673-.269-.673-.74V35.107Z" transform="translate(1389.597 3572.103)" fill="#3c3c3b"/>
    <path id="Path_3538" data-name="Path 3538" d="M160.2,35.042a.656.656,0,0,1,.673-.74h.673c.471,0,.673.269.673.74v.538a1.467,1.467,0,0,1-.067.4h.067A3.318,3.318,0,0,1,165.11,34.1a2.379,2.379,0,0,1,2.556,1.816h.067a3.418,3.418,0,0,1,2.96-1.816c1.816,0,2.892,1.009,2.892,3.363v4.91a.673.673,0,0,1-.74.74h-.74a.673.673,0,0,1-.74-.74V37.867c0-1.009-.2-1.749-1.211-1.749-1.48,0-2.22,1.48-2.22,3.027v3.229a.656.656,0,0,1-.673.74h-.74a.673.673,0,0,1-.74-.74V37.867c0-.942-.135-1.749-1.143-1.749-1.547,0-2.287,1.547-2.287,3.027v3.229a.656.656,0,0,1-.673.74h-.74c-.471,0-.673-.269-.673-.74V35.042Z" transform="translate(1386.324 3572.168)" fill="#3c3c3b"/>
    <path id="Path_3539" data-name="Path 3539" d="M187.212,37.665h.336v-.2a1.431,1.431,0,0,0-1.614-1.547,4.2,4.2,0,0,0-1.816.471.621.621,0,0,1-.942-.269l-.2-.336a.621.621,0,0,1,.269-.942,6.333,6.333,0,0,1,2.892-.74c2.287,0,3.632,1.278,3.632,3.5v4.776a.673.673,0,0,1-.74.74h-.605c-.471,0-.673-.269-.673-.74v-.336a.976.976,0,0,1,.067-.4h-.067a3.165,3.165,0,0,1-2.758,1.682,2.656,2.656,0,0,1-2.892-2.623c0-2.556,3.161-3.027,5.112-3.027M185.6,41.634a2.218,2.218,0,0,0,2.018-2.287V39.01h-.336c-1.076,0-2.96.2-2.96,1.48-.067.538.4,1.144,1.278,1.144" transform="translate(1379.155 3572.168)" fill="#3c3c3b"/>
    <path id="Path_3540" data-name="Path 3540" d="M200.538,34.1a5.23,5.23,0,0,1,2.892.874.674.674,0,0,1,.135,1.009l-.2.336c-.269.4-.538.4-.942.2a2.768,2.768,0,0,0-1.682-.538,2.616,2.616,0,0,0-2.691,2.691,2.686,2.686,0,0,0,2.758,2.758,3.5,3.5,0,0,0,1.951-.673.643.643,0,0,1,1.009.2l.2.336a.649.649,0,0,1-.2.942,5.2,5.2,0,0,1-3.094,1.009,4.507,4.507,0,0,1-4.776-4.574,4.321,4.321,0,0,1,4.641-4.574" transform="translate(1374.641 3572.168)" fill="#3c3c3b"/>
    <path id="Path_3541" data-name="Path 3541" d="M210.172,44.794a1.343,1.343,0,0,0,.605.135,1.739,1.739,0,0,0,1.413-1.144l.336-.807-3.363-7.8c-.2-.471,0-.874.538-.874h.942a.791.791,0,0,1,.807.605l1.682,4.44c.135.471.336,1.211.336,1.211h.067s.135-.673.269-1.144l1.547-4.507a.791.791,0,0,1,.807-.605h.874c.538,0,.74.336.605.807l-3.632,9.215a3.286,3.286,0,0,1-3.162,2.287,2.932,2.932,0,0,1-1.211-.269.628.628,0,0,1-.336-.942l.135-.4a.718.718,0,0,1,.74-.2" transform="translate(1370.321 3572.103)" fill="#3c3c3b"/>
    <path id="Path_3542" data-name="Path 3542" d="M21.6,7.6A7.593,7.593,0,0,0,14,0V15.269A7.608,7.608,0,0,0,21.6,7.6" transform="translate(1434.181 3583.33)" fill="#5ebc5e"/>
    <path id="Path_3543" data-name="Path 3543" d="M0,39.867a9.009,9.009,0,0,0,3.5,6.659,9.317,9.317,0,0,0,13.117-1.48A9.571,9.571,0,0,0,18.633,39.8H0Z" transform="translate(1438.764 3570.302)" fill="#00accd"/>
    <path id="Path_3544" data-name="Path 3544" d="M47,0h0V35.584A9.3,9.3,0,0,0,56.283,26.3V9.283A9.389,9.389,0,0,0,47,0" transform="translate(1423.379 3583.33)" fill="#00a955"/>
    <path id="Path_3545" data-name="Path 3545" d="M85.765,9.283a9.283,9.283,0,1,0-18.565,0v8.61H85.7V9.283Z" transform="translate(1416.766 3583.33)" fill="#118acb"/>
  </g>
</svg>
