<svg xmlns="http://www.w3.org/2000/svg" width="25" height="22.43" viewBox="0 0 25 22.43">
  <g id="alert" transform="translate(0 -26.315)">
    <g id="Group_3410" data-name="Group 3410" transform="translate(0 26.315)">
      <g id="Group_3409" data-name="Group 3409" transform="translate(0 0)">
        <path id="Path_3596" data-name="Path 3596" d="M24.6,44.336,15.046,27.785a2.94,2.94,0,0,0-5.092,0L.4,44.336a2.94,2.94,0,0,0,2.546,4.41H22.055A2.94,2.94,0,0,0,24.6,44.336Zm-1.268,2.207a1.46,1.46,0,0,1-1.277.737H2.944a1.475,1.475,0,0,1-1.277-2.212l9.556-16.551a1.475,1.475,0,0,1,2.555,0l9.556,16.551A1.46,1.46,0,0,1,23.333,46.543Z" transform="translate(0 -26.315)" fill="#fc2f4b"/>
      </g>
    </g>
    <g id="Group_3412" data-name="Group 3412" transform="translate(11.444 32.062)">
      <g id="Group_3411" data-name="Group 3411" transform="translate(0 0)">
        <rect id="Rectangle_2427" data-name="Rectangle 2427" width="2.111" height="10.553" fill="#fc2f4b"/>
      </g>
    </g>
    <g id="Group_3414" data-name="Group 3414" transform="translate(11.093 41.735)">
      <g id="Group_3413" data-name="Group 3413">
        <path id="Path_3597" data-name="Path 3597" d="M237.409,355.99a1.407,1.407,0,1,0,1.407,1.407A1.409,1.409,0,0,0,237.409,355.99Z" transform="translate(-236.002 -355.99)" fill="#fc2f4b"/>
      </g>
    </g>
  </g>
</svg>
