<svg xmlns="http://www.w3.org/2000/svg" width="26" height="26" viewBox="0 0 26 26">
  <g id="Group_4011" data-name="Group 4011" transform="translate(-740 -314)">
    <g id="Rectangle_2238" data-name="Rectangle 2238" transform="translate(740 314)" fill="none" stroke="#0dc0f2" stroke-width="1.25">
      <rect width="26" height="26" rx="13" stroke="none"/>
      <rect x="0.625" y="0.625" width="24.75" height="24.75" rx="12.375" fill="none"/>
    </g>
    <path id="Fill_1" data-name="Fill 1" d="M11,9.99H3.723A1.709,1.709,0,0,1,2.03,8.428L1.42,1.166.42.993A.5.5,0,0,1,.007.413.506.506,0,0,1,.585.006l1.387.24A.5.5,0,0,1,2.384.7l.157,1.867c9.513,0,9.549.008,9.594.014a1.4,1.4,0,0,1,1.184,1.58l-.633,4.372A1.709,1.709,0,0,1,11,9.99ZM2.625,3.565l.4,4.781a.7.7,0,0,0,.7.644H11a.7.7,0,0,0,.695-.6l.634-4.373a.392.392,0,0,0-.075-.292A.387.387,0,0,0,12,3.569H6.448Z" transform="translate(746.093 321.104)" fill="#0dc0f2"/>
    <path id="Fill_19" data-name="Fill 19" d="M.863,1.726A.863.863,0,1,1,1.727.863a.863.863,0,0,1-.864.863" transform="translate(756.186 332.406)" fill="none" stroke="#0dc0f2" stroke-width="0.75"/>
    <path id="Fill_19-2" data-name="Fill 19" d="M.863,1.726A.863.863,0,1,1,1.727.863a.863.863,0,0,1-.864.863" transform="translate(749.186 332.406)" fill="none" stroke="#0dc0f2" stroke-width="0.75"/>
  </g>
</svg>
