<svg xmlns="http://www.w3.org/2000/svg" width="120" height="120" viewBox="0 0 120 120">
  <g id="Group_7404" data-name="Group 7404" transform="translate(-896 -370.234)">
    <g id="Group_6796" data-name="Group 6796" transform="translate(14 -71)">
      <path id="Path_8070" data-name="Path 8070" d="M50,0H70a50,50,0,0,1,50,50V70a50,50,0,0,1-50,50H50A50,50,0,0,1,0,70V50A50,50,0,0,1,50,0Z" transform="translate(882 441.234)" fill="#f5f5f5"/>
    </g>
    <g id="danger_1_" data-name="danger (1)" transform="translate(929.447 401.905)">
      <g id="Group_7399" data-name="Group 7399" transform="translate(0 0)">
        <g id="Group_7398" data-name="Group 7398" transform="translate(0 0)">
          <path id="Path_8793" data-name="Path 8793" d="M52.421,74.29,30.638,38.164a4.771,4.771,0,0,0-8.171,0L.684,74.29a4.771,4.771,0,0,0,4.086,7.234H48.335a4.771,4.771,0,0,0,4.086-7.234ZM49.479,77.4a1.316,1.316,0,0,1-1.144.668H4.769a1.313,1.313,0,0,1-1.125-1.991L25.428,39.95a1.313,1.313,0,0,1,2.249,0L49.46,76.075A1.315,1.315,0,0,1,49.479,77.4Z" transform="translate(0 -35.857)" fill="#ff0707"/>
        </g>
      </g>
      <g id="Group_7401" data-name="Group 7401" transform="translate(24.227 14.225)">
        <g id="Group_7400" data-name="Group 7400">
          <path id="Path_8794" data-name="Path 8794" d="M235.92,173.005c-1.315,0-2.342.706-2.342,1.957,0,3.817.449,9.3.449,13.12,0,.994.866,1.411,1.893,1.411.77,0,1.86-.417,1.86-1.411,0-3.817.449-9.3.449-13.12A2.061,2.061,0,0,0,235.92,173.005Z" transform="translate(-233.578 -173.005)" fill="#ff0707"/>
        </g>
      </g>
      <g id="Group_7403" data-name="Group 7403" transform="translate(24.131 32.926)">
        <g id="Group_7402" data-name="Group 7402">
          <path id="Path_8795" data-name="Path 8795" d="M235.121,353.306a2.47,2.47,0,1,0,0,4.94,2.47,2.47,0,0,0,0-4.94Z" transform="translate(-232.651 -353.306)" fill="#ff0707"/>
        </g>
      </g>
    </g>
  </g>
</svg>
