<svg xmlns="http://www.w3.org/2000/svg" width="990.075" height="990.077" viewBox="0 0 990.075 990.077">
  <g id="Group_4017" data-name="Group 4017" transform="translate(-276.925 -44.962)">
    <g id="Group_4016" data-name="Group 4016" transform="translate(-296 -315.538)">
      <g id="ico-order-submit" transform="translate(572.925 360.5)">
        <path id="Path_8070" data-name="Path 8070" d="M412.528,0H577.537C805.384,0,990.081,184.7,990.075,412.539v165c0,227.851-184.707,412.55-412.548,412.539h-165C184.691,990.077-.006,805.375,0,577.538V412.529C0,184.7,184.7,0,412.528,0Z" transform="translate(0 0)" fill="#f5f5f5"/>
      </g>
    </g>
    <path id="callout-icon1-01-01" d="M499.6,72c11.649,7.473,12.669,15.611,3.132,25.433-6.358,6.548-12.693,13.1-19.146,19.55-6.928,6.9-14.615,7.426-20.546,1.542-5.48-5.457-5.2-13.689,1.091-20.19,8.589-8.873,17.414-17.58,26.1-26.335ZM383.484,187.067c2.8,9.8,9.348,14.235,17.557,11.72,7.758-2.373,11.2-9.49,8.565-18.98-6.43-22.824-12.693-45.718-19.763-68.352a19.929,19.929,0,0,0-9.229-10.178c-6.6-3.511-11.7,1.4-16.608,5.457q-70.44,59.764-141,119.48a26.1,26.1,0,0,1-9.253,4.864c-22.966,6.762-46,13.286-69.017,19.834-22.183,6.311-44.366,12.527-66.549,18.814-10.439,2.966-13.95,9.11-11.2,19.5.925,3.416,1.827,6.833,2.847,10.653-1.969.641-3.8,1.352-5.67,1.874-14.5,4.128-29.016,8.161-43.512,12.361-10.392,2.989-13.927,9.229-11.032,19.6q8.4,30.083,17.082,60.12c3.155,10.961,9.016,14.069,20.119,10.985L95.318,391.2c9.039,22.681,9.039,22.681,33.619,19.122,1.21,1.969,2.373,4.033,3.725,6.121,7.853,13.144,15.35,26.548,23.725,39.408a42.088,42.088,0,0,0,45.979,17.794A42.705,42.705,0,0,0,234.3,436.016a44.058,44.058,0,0,0-6.833-27.925c-4.413-7.284-8.636-14.662-13.262-22.563,13.12-3.749,24.935-7.568,36.964-10.32a58.912,58.912,0,0,1,18.814-.973c10.581,1.02,21.068,3.155,31.6,4.745,49.159,7.284,98.365,14.472,147.5,21.851,14.425,2.183,21.566-5.67,17.6-19.882-3.82-13.642-7.639-27.331-11.483-40.973s-7.853-27.735-11.863-41.567a13.452,13.452,0,0,0-12.218-10.7c-5.836-.522-10.985,1.922-12.859,7.426a23.275,23.275,0,0,0-.142,12.812c5.528,20.949,11.578,41.733,17.6,63.109a32.9,32.9,0,0,1-3.772,0c-52.2-7.853-104.391-15.848-156.586-23.393-5.314-.783-6.785-3.013-8.019-7.473q-12.124-43.56-24.769-86.977c-1.376-4.745-.854-7.4,3.061-10.653,30.226-25.2,60.238-50.677,90.3-76.063,11.008-9.277,22.017-18.553,33.737-28.47C374.374,155.038,378.905,171.1,383.484,187.067Zm-167.595,71.6c8.612,30.344,17.082,60.143,25.766,90.678L121.819,383.417c-8.589-30.178-17.106-60.1-25.837-90.725ZM184.1,393.9a5.718,5.718,0,0,1,4.745,2.372c5.813,9.49,11.6,18.98,16.845,28.613A15.635,15.635,0,0,1,178.9,440.879c-7.948-12.479-15.255-25.386-23.227-38.767,9.87-2.918,19.1-5.765,28.447-8.185ZM77.334,326.12,88.39,364.745c-12.1,3.464-23.868,6.928-35.73,10.083a4.745,4.745,0,0,1-3.843-2.372c-3.464-11.6-6.643-23.3-10.059-35.588Zm506.224,26.62a12.93,12.93,0,0,0-8.8-15.279q-17.177-5.125-34.734-8.944c-6.24-1.376-12.6,3.2-14.52,9.205s.427,13.713,6.572,15.73c12.361,4.1,25.1,7.118,35.066,9.8,9.371.095,15.042-4.176,16.347-10.487Zm-50.013-148.4c-5.67,2.088-7.545,9.632-5.6,15.587,1.827,5.575,8.422,10.32,14.093,8.9,12.052-2.989,24.01-6.358,35.778-10.226a12.408,12.408,0,0,0,7.806-14.567c-1.424-6.643-6.524-10.842-16.323-10.89-10.131,3.108-23.18,6.6-35.825,11.222Zm-121,25.41a13.879,13.879,0,0,0-12.978,13.5,13.428,13.428,0,0,0,13.523,13.476,13.144,13.144,0,0,0,13.167-13.689,13.523,13.523,0,0,0-13.737-13.262Z" transform="translate(474.652 266.488)" fill="#1888ca"/>
  </g>
</svg>
