<svg xmlns="http://www.w3.org/2000/svg" width="47.038" height="43" viewBox="0 0 47.038 43">
  <g id="warning" transform="translate(0 -20.882)">
    <g id="Group_6785" data-name="Group 6785" transform="translate(0 20.882)">
      <path id="Path_8060" data-name="Path 8060" d="M220.642,333.382a2.417,2.417,0,0,0,0,4.835,2.418,2.418,0,0,0,0-4.835Z" transform="translate(-197.124 -303.165)" fill="#fff"/>
      <path id="Path_8061" data-name="Path 8061" d="M45.893,59.666a8.255,8.255,0,0,0,.019-8.354L30.77,25.088a8.343,8.343,0,0,0-14.485-.01L1.124,51.331A8.375,8.375,0,0,0,8.376,63.882H38.622A8.327,8.327,0,0,0,45.893,59.666Zm-3.288-1.9a4.569,4.569,0,0,1-3.993,2.311H8.366a4.507,4.507,0,0,1-3.945-2.263,4.576,4.576,0,0,1-.01-4.612L19.573,26.964a4.554,4.554,0,0,1,7.91.01L42.635,53.217A4.515,4.515,0,0,1,42.606,57.771Z" transform="translate(0 -20.882)" fill="#fff"/>
      <path id="Path_8062" data-name="Path 8062" d="M219.591,157.244a2.629,2.629,0,0,0-1.866,2.64c.058.764.106,1.537.164,2.3.164,2.911.329,5.763.493,8.674a1.771,1.771,0,0,0,1.808,1.7A1.808,1.808,0,0,0,222,170.8c0-.6,0-1.151.058-1.76.106-1.866.222-3.732.329-5.6.058-1.209.164-2.417.222-3.626a2.986,2.986,0,0,0-.222-1.209A2.424,2.424,0,0,0,219.591,157.244Z" transform="translate(-196.672 -143.997)" fill="#fff"/>
    </g>
  </g>
</svg>
